<?xml version="1.0" standalone="no"?>
<!DOCTYPE svg PUBLIC "-//W3C//DTD SVG 20010904//EN"
 "http://www.w3.org/TR/2001/REC-SVG-20010904/DTD/svg10.dtd">
<svg version="1.0" xmlns="http://www.w3.org/2000/svg"
 width="1400.000000pt" height="390.000000pt" viewBox="0 0 1400.000000 390.000000"
 preserveAspectRatio="xMidYMid meet">
<metadata>
Created by potrace 1.14, written by Peter Selinger 2001-2017
</metadata>
<g transform="translate(0.000000,390.000000) scale(0.100000,-0.100000)"
fill="#000000" stroke="none">
<path d="M5210 3885 c0 -9 6 -12 15 -9 12 5 15 -2 15 -29 0 -20 -7 -42 -15
-51 -8 -8 -15 -19 -15 -25 0 -6 -7 -31 -16 -57 -8 -25 -14 -48 -12 -50 2 -2
14 -1 26 3 19 5 22 12 22 54 0 53 14 65 25 22 7 -28 7 -28 16 -5 13 33 19 27
19 -18 0 -30 -4 -40 -16 -40 -13 0 -15 -7 -9 -38 5 -29 2 -42 -9 -52 -24 -19
-19 -28 12 -23 26 4 25 3 -16 -35 -34 -32 -39 -41 -26 -46 15 -6 15 -8 -1 -26
-17 -19 -17 -21 -1 -33 16 -12 15 -16 -13 -55 -37 -49 -37 -52 -11 -45 26 7
25 -5 -2 -35 -22 -23 -22 -24 -3 -20 34 5 32 -38 -2 -55 -28 -15 -79 -75 -70
-83 2 -2 20 3 40 11 63 26 41 -1 -40 -50 -94 -57 -91 -54 -73 -65 9 -5 19 -5
26 1 8 7 14 6 19 -1 4 -7 12 -7 25 0 44 23 54 1 18 -38 -17 -19 -19 -24 -6
-19 31 11 88 19 88 12 0 -3 -5 -16 -11 -27 -8 -14 -8 -23 0 -31 6 -6 11 -25
12 -42 l1 -30 11 33 c6 20 15 31 23 28 16 -6 26 52 26 142 0 49 4 71 19 91 26
35 55 178 69 336 8 89 18 142 31 168 25 49 24 55 -7 69 -26 12 -27 13 -20 95
l6 83 -85 0 c-68 0 -85 -3 -85 -15z"/>
<path d="M13830 3885 c0 -9 6 -12 15 -9 12 5 15 -2 15 -29 0 -20 -7 -42 -15
-51 -8 -8 -15 -19 -15 -25 0 -6 -7 -31 -16 -57 -8 -25 -14 -48 -12 -50 2 -2
14 -1 26 3 19 5 22 12 22 54 0 53 14 65 25 22 7 -28 7 -28 16 -5 13 33 19 27
19 -18 0 -30 -4 -40 -16 -40 -13 0 -15 -7 -9 -38 5 -29 2 -42 -9 -52 -24 -19
-19 -28 12 -23 26 4 25 3 -16 -35 -34 -32 -39 -41 -26 -46 15 -6 15 -8 -1 -26
-17 -19 -17 -21 -1 -33 16 -12 15 -16 -13 -55 -37 -49 -37 -52 -11 -45 26 7
25 -5 -2 -35 -22 -23 -22 -24 -3 -20 34 5 32 -38 -2 -55 -28 -15 -79 -75 -70
-83 2 -2 20 3 40 11 63 26 41 -1 -40 -50 -94 -57 -91 -54 -73 -65 9 -5 19 -5
26 1 8 7 14 6 19 -1 4 -7 12 -7 25 0 44 23 54 1 18 -38 -17 -19 -19 -24 -6
-19 31 11 88 19 88 12 0 -3 -5 -16 -11 -27 -8 -14 -8 -23 0 -31 6 -6 11 -25
12 -42 l1 -30 11 33 c6 20 15 31 23 28 16 -6 26 52 26 142 0 49 4 71 19 91 45
61 81 336 76 593 l-2 158 -82 0 c-66 0 -83 -3 -83 -15z"/>
<path d="M4240 3727 c-63 -70 -120 -127 -127 -127 -7 0 -26 -18 -44 -39 -18
-24 -37 -37 -45 -34 -8 3 -14 -1 -14 -9 0 -24 -74 -88 -101 -88 -32 0 -98 46
-134 94 -15 20 -31 33 -36 30 -11 -6 69 -124 89 -132 8 -3 26 -16 40 -28 16
-15 37 -24 58 -24 35 0 43 -8 59 -55 6 -16 14 -29 20 -28 5 1 17 37 25 80 9
43 21 87 27 98 6 11 51 59 100 106 97 94 206 239 201 266 -2 12 -36 -19 -118
-110z"/>
<path d="M12860 3727 c-63 -70 -120 -127 -127 -127 -7 0 -26 -18 -44 -39 -18
-24 -37 -37 -45 -34 -8 3 -14 -1 -14 -9 0 -24 -74 -88 -101 -88 -32 0 -98 46
-134 94 -15 20 -31 33 -36 30 -11 -6 69 -124 89 -132 8 -3 26 -16 40 -28 16
-15 37 -24 58 -24 35 0 43 -8 59 -55 6 -16 14 -29 20 -28 5 1 17 37 25 80 9
43 21 87 27 98 6 11 51 59 100 106 97 94 206 239 201 266 -2 12 -36 -19 -118
-110z"/>
<path d="M4584 3643 c6 -18 1 -21 -34 -27 -42 -7 -51 -19 -23 -34 14 -8 13
-11 -8 -17 -53 -17 -109 -48 -109 -61 0 -10 15 -14 56 -14 l56 0 -32 -26 c-42
-36 -21 -50 32 -23 21 11 50 24 65 30 25 9 25 9 -6 -26 -49 -56 -39 -71 23
-34 40 24 101 23 101 -1 0 -11 -10 -14 -38 -13 -47 3 -92 -19 -177 -87 -36
-28 -67 -53 -69 -55 -1 -2 0 -9 4 -15 6 -10 46 9 123 58 12 8 22 12 22 10 0
-2 -31 -26 -70 -52 -66 -46 -84 -66 -58 -66 6 0 40 16 75 35 72 41 83 41 21 0
-24 -15 -69 -48 -101 -72 -54 -40 -57 -42 -51 -18 3 14 1 32 -6 40 -6 8 -9 19
-5 25 4 6 3 10 -2 9 -4 -1 -16 1 -25 5 -10 4 -21 6 -27 4 -19 -7 -381 -440
-381 -456 0 -26 440 -451 467 -452 24 0 43 26 43 61 0 12 -49 98 -110 191 -60
93 -112 179 -115 191 -4 14 5 48 22 86 28 62 30 64 89 85 44 16 65 19 77 12
12 -7 21 -6 35 7 28 26 32 22 32 -32 0 -56 7 -81 23 -81 6 0 44 32 83 71 67
67 70 69 66 40 -7 -47 15 -38 29 12 l11 42 49 -100 c26 -55 48 -112 48 -128 1
-18 -35 -83 -114 -204 -63 -96 -115 -182 -115 -189 0 -7 5 -25 12 -39 22 -48
47 -33 219 131 217 205 279 272 279 299 0 13 -42 70 -107 146 -186 216 -185
212 -113 270 21 17 39 39 40 48 0 9 2 39 3 67 3 74 57 129 57 58 0 -13 4 -24
9 -24 27 0 33 224 8 283 -18 42 -39 47 -77 17 -34 -27 -117 -27 -168 0 -22 11
-63 23 -92 27 -49 6 -52 5 -46 -14z"/>
<path d="M13204 3643 c6 -18 1 -21 -34 -27 -42 -7 -51 -19 -23 -34 14 -8 13
-11 -8 -17 -53 -17 -109 -48 -109 -61 0 -10 15 -14 56 -14 l56 0 -32 -26 c-42
-36 -21 -50 32 -23 21 11 50 24 65 30 25 9 25 9 -6 -26 -49 -56 -39 -71 23
-34 40 24 101 23 101 -1 0 -11 -10 -14 -38 -13 -47 3 -92 -19 -177 -87 -36
-28 -67 -53 -69 -55 -1 -2 0 -9 4 -15 6 -10 46 9 123 58 12 8 22 12 22 10 0
-2 -31 -26 -70 -52 -66 -46 -84 -66 -58 -66 6 0 41 16 77 36 80 44 72 35 -34
-38 -44 -31 -89 -66 -100 -78 l-20 -23 28 5 c15 3 27 4 27 3 0 -1 -56 -40
-124 -86 -69 -46 -122 -87 -120 -91 10 -15 124 -8 172 10 35 14 52 16 64 8 13
-8 22 -6 36 7 28 26 32 22 32 -32 0 -56 7 -81 23 -81 6 0 44 32 83 71 67 67
70 69 66 40 -7 -50 16 -36 30 16 6 26 13 42 16 35 2 -6 10 -12 17 -12 9 0 16
17 20 48 3 26 10 56 15 67 7 15 7 11 3 -12 -9 -52 14 -40 41 21 14 31 38 64
59 80 20 15 36 35 37 44 0 9 2 40 3 68 3 74 57 129 57 58 0 -13 4 -24 9 -24
27 0 33 224 8 283 -18 42 -39 47 -77 17 -34 -27 -117 -27 -168 0 -22 11 -63
23 -92 27 -49 6 -52 5 -46 -14z"/>
<path d="M1214 2720 c-36 -8 -76 -35 -118 -79 -16 -17 -34 -27 -40 -24 -6 3
-8 3 -4 -2 4 -4 -2 -23 -13 -42 -11 -18 -18 -33 -15 -33 4 0 -9 -22 -28 -50
-29 -43 -56 -120 -56 -164 0 -36 35 -121 62 -152 72 -82 170 -100 274 -49 66
32 152 112 176 165 9 19 30 65 47 102 38 82 39 105 5 149 -14 19 -38 55 -54
80 -43 71 -154 117 -236 99z m-53 -126 c-64 -82 -72 -287 -13 -359 10 -11 28
-28 42 -38 l24 -17 -30 0 c-17 0 -50 10 -74 23 -119 63 -119 246 -1 368 50 52
88 69 52 23z"/>
<path d="M9834 2720 c-36 -8 -76 -35 -118 -79 -16 -17 -34 -27 -40 -24 -6 3
-8 3 -4 -2 4 -4 -2 -23 -13 -42 -11 -18 -18 -33 -15 -33 4 0 -9 -23 -28 -50
-20 -28 -40 -74 -46 -104 l-11 -54 -43 18 c-60 27 -179 43 -263 36 -122 -10
-206 -52 -242 -123 -16 -31 -14 -109 4 -143 35 -67 110 -100 285 -124 141 -20
186 -32 211 -57 61 -61 -30 -129 -176 -129 -90 0 -159 24 -206 71 -21 21 -42
39 -45 39 -3 0 -30 -7 -60 -16 l-54 -15 20 -40 c24 -47 81 -90 159 -120 75
-30 266 -33 353 -6 106 32 166 115 156 211 -12 102 -84 145 -288 176 -178 26
-218 38 -237 67 -15 22 -15 26 4 51 27 36 73 51 164 51 99 1 160 -20 201 -69
30 -35 33 -36 65 -27 30 10 36 8 66 -20 78 -75 163 -87 263 -38 66 32 152 112
176 165 9 19 30 65 47 102 38 82 39 105 5 149 -14 19 -38 55 -54 80 -43 71
-154 117 -236 99z m-53 -126 c-64 -82 -72 -287 -13 -359 10 -11 28 -28 42 -38
l24 -17 -30 0 c-17 0 -50 10 -74 23 -119 63 -119 246 -1 368 50 52 88 69 52
23z"/>
<path d="M3605 2450 l-250 -250 -70 69 c-46 45 -94 81 -140 104 -157 78 -203
73 -374 -45 -311 -213 -371 -259 -371 -284 0 -9 29 -44 64 -77 36 -34 66 -70
68 -80 2 -13 35 -29 118 -58 176 -63 206 -69 320 -68 130 0 181 9 226 41 52
38 210 185 240 224 l27 34 -25 38 -25 37 219 143 c129 83 229 142 243 142 14
0 89 -42 171 -95 90 -58 157 -95 173 -95 41 0 101 20 101 33 0 21 -423 437
-445 437 -13 0 -110 -90 -270 -250z m-624 -199 c43 -38 43 -38 26 -65 -22 -33
-28 -33 -62 6 l-28 32 -28 -34 c-38 -45 -54 -115 -39 -171 14 -50 55 -135 70
-144 26 -16 4 -25 -57 -25 -74 0 -90 8 -135 70 -51 71 -59 95 -48 147 15 63
37 98 109 166 54 52 64 57 104 57 37 0 51 -6 88 -39z"/>
<path d="M4896 2491 c-150 -150 -207 -213 -204 -227 2 -14 16 -21 55 -28 60
-10 55 -12 237 103 72 44 136 81 143 81 26 0 55 -17 441 -267 121 -79 225
-143 231 -143 37 0 -23 68 -316 362 -258 258 -333 328 -353 328 -19 0 -72 -47
-234 -209z"/>
<path d="M11547 2416 c-45 -12 -86 -38 -357 -227 -115 -80 -170 -127 -170
-145 0 -9 29 -44 64 -77 36 -34 66 -70 68 -80 2 -13 35 -29 118 -58 176 -63
206 -69 320 -68 130 0 181 9 226 41 52 38 210 185 240 224 l27 34 -27 40 c-14
22 -68 84 -120 138 -83 86 -105 103 -183 139 -105 50 -142 57 -206 39z m54
-165 c43 -38 43 -38 26 -65 -22 -33 -28 -33 -62 6 l-28 32 -28 -34 c-38 -45
-54 -115 -39 -171 14 -50 55 -135 70 -144 26 -16 4 -25 -57 -25 -74 0 -90 8
-135 70 -51 71 -59 95 -48 147 15 63 37 98 109 166 54 52 64 57 104 57 37 0
51 -6 88 -39z"/>
<path d="M6402 2375 c-118 -26 -202 -96 -242 -201 -18 -49 -21 -74 -18 -149 5
-109 33 -171 104 -233 75 -67 137 -86 279 -86 102 0 129 4 179 24 71 27 147
94 176 154 80 167 19 380 -134 458 -87 45 -228 58 -344 33z m266 -127 c95 -49
138 -150 113 -263 -23 -104 -100 -163 -225 -172 -181 -14 -290 73 -290 232 0
116 56 192 162 222 68 19 184 10 240 -19z"/>
<path d="M7151 2375 c-83 -18 -137 -55 -162 -108 -25 -55 -24 -93 4 -147 29
-59 98 -94 222 -114 50 -8 123 -20 164 -26 56 -9 80 -19 105 -41 30 -27 30
-29 16 -55 -29 -53 -73 -69 -190 -69 -117 0 -164 17 -213 75 -14 16 -32 30
-40 30 -17 0 -107 -30 -107 -36 0 -31 74 -111 128 -139 79 -39 234 -55 343
-35 138 25 209 94 209 201 0 120 -68 165 -312 204 -173 27 -206 38 -214 71
-16 62 60 99 193 92 102 -5 157 -26 188 -74 l21 -31 53 19 c30 10 56 20 58 22
8 8 -25 61 -54 87 -82 77 -255 108 -412 74z"/>
<path d="M7730 2045 l0 -325 65 0 65 0 0 325 0 325 -65 0 -65 0 0 -325z"/>
<path d="M7990 2046 l0 -326 65 0 65 0 0 125 0 125 103 0 102 0 90 -125 90
-124 78 -1 c60 0 76 3 71 13 -4 6 -48 65 -96 130 -56 74 -84 119 -76 121 7 3
25 7 40 10 39 9 88 54 109 101 43 95 10 202 -76 245 -49 24 -56 25 -307 28
l-258 3 0 -325z m444 215 c60 -10 86 -38 86 -90 0 -27 -7 -44 -26 -62 -25 -23
-31 -24 -200 -27 l-174 -4 0 96 0 96 133 -1 c72 0 154 -4 181 -8z"/>
<path d="M8760 2045 l0 -325 65 0 65 0 0 325 0 325 -65 0 -65 0 0 -325z"/>
<path d="M3911 2095 c-162 -41 -300 -80 -308 -88 -13 -13 -1 -72 96 -468 62
-250 116 -458 121 -463 5 -5 13 -7 16 -3 4 4 2 178 -5 387 -9 281 -9 385 0
401 9 18 216 124 427 219 33 15 52 30 52 41 0 18 -56 50 -87 48 -10 -1 -150
-34 -312 -74z"/>
<path d="M4780 2163 c-36 -11 -60 -27 -60 -39 0 -16 0 -16 250 -137 113 -54
213 -106 224 -115 20 -18 20 -75 -1 -629 -5 -151 -4 -173 9 -173 18 0 12 -25
138 495 55 226 98 419 95 431 -4 17 -27 26 -147 57 -203 51 -478 117 -486 116
-4 0 -14 -3 -22 -6z"/>
<path d="M4235 1971 c-148 -71 -275 -138 -282 -148 -11 -16 17 -81 210 -483
122 -255 223 -458 225 -450 1 9 -40 191 -93 407 -52 215 -95 401 -95 414 0 27
36 61 189 177 75 56 132 92 147 92 15 0 73 -37 151 -96 165 -124 183 -141 183
-175 0 -15 -43 -203 -95 -418 -52 -215 -95 -397 -95 -403 0 -24 29 31 163 312
74 157 170 356 211 444 44 92 74 166 71 176 -7 22 -551 280 -591 280 -16 0
-148 -57 -299 -129z"/>
<path d="M862 1655 c-69 -19 -126 -53 -181 -107 -52 -51 -78 -105 -87 -181 -6
-54 -6 -58 26 -87 17 -16 69 -50 114 -75 44 -24 74 -45 66 -47 -8 -1 -51 -2
-95 -2 -72 -1 -80 -3 -83 -21 -7 -55 160 -260 261 -319 42 -25 56 -28 111 -24
116 7 285 113 451 282 131 134 181 230 161 310 -18 71 -211 187 -431 258 -82
26 -243 33 -313 13z"/>
<path d="M9482 1655 c-69 -19 -126 -53 -181 -107 -52 -51 -78 -105 -87 -181
-6 -54 -6 -58 26 -87 17 -16 69 -50 114 -75 44 -24 74 -45 66 -47 -8 -1 -51
-2 -95 -2 -72 -1 -80 -3 -83 -21 -7 -55 160 -260 261 -319 42 -25 56 -28 111
-24 116 7 285 113 451 282 131 134 181 230 161 310 -18 71 -211 187 -431 258
-82 26 -243 33 -313 13z"/>
<path d="M1217 723 c-12 -11 -8 -41 7 -46 9 -4 16 -30 20 -74 4 -37 9 -80 12
-95 5 -24 2 -28 -18 -28 -13 0 -48 13 -78 29 -103 53 -154 65 -295 65 l-130 1
-18 -37 c-14 -28 -16 -48 -11 -89 6 -47 14 -61 68 -118 54 -58 65 -66 94 -63
22 2 42 -5 65 -21 17 -14 41 -24 52 -24 78 2 105 -3 105 -22 0 -48 25 -66 50
-36 14 17 50 20 50 5 0 -11 40 -14 40 -2 0 4 4 13 9 21 7 11 14 9 33 -13 l23
-28 26 20 c21 17 32 19 69 11 25 -4 48 -8 52 -9 4 0 15 -12 23 -27 9 -16 14
-20 11 -10 -3 9 -4 17 -3 17 1 0 20 -7 42 -15 22 -8 57 -14 78 -15 21 0 48 -5
59 -11 14 -8 23 -8 31 0 21 21 34 11 47 -34 7 -25 15 -44 17 -41 3 2 0 21 -6
41 -9 32 -8 35 8 30 10 -3 32 6 51 20 19 14 40 25 47 25 8 0 42 12 76 26 56
24 69 26 145 20 58 -5 88 -4 98 5 8 6 23 9 33 6 12 -3 27 3 37 14 12 13 31 19
59 19 31 0 46 6 62 24 19 21 75 45 144 60 29 6 45 34 30 49 -13 13 -119 -8
-191 -38 -41 -16 -93 -25 -200 -34 -128 -10 -152 -15 -203 -41 -42 -22 -65
-28 -85 -23 -48 12 -192 82 -192 93 0 6 -4 9 -10 5 -5 -3 -36 8 -69 25 -33 16
-73 30 -89 30 -41 0 -68 35 -82 105 -6 33 -16 75 -22 93 -7 23 -7 37 1 46 14
17 4 46 -15 46 -21 0 -29 -29 -15 -51 6 -11 18 -50 27 -87 8 -37 17 -75 21
-86 4 -16 1 -18 -28 -13 -19 3 -50 11 -70 18 l-36 13 -12 99 c-9 71 -9 102 -1
111 21 27 -19 64 -43 39z"/>
<path d="M9837 723 c-12 -11 -8 -41 7 -46 9 -4 16 -30 20 -74 4 -37 9 -80 12
-95 5 -24 2 -28 -18 -28 -13 0 -48 13 -78 29 -103 53 -154 65 -295 65 l-130 1
-18 -37 c-14 -28 -16 -48 -11 -89 6 -47 14 -61 68 -118 54 -58 65 -66 94 -63
22 2 42 -5 65 -21 17 -14 41 -24 52 -24 78 2 105 -3 105 -22 0 -48 25 -66 50
-36 14 17 50 20 50 5 0 -11 40 -14 40 -2 0 4 4 13 9 21 7 11 14 9 33 -13 l23
-28 26 20 c21 17 32 19 69 11 25 -4 48 -8 52 -9 4 0 15 -12 23 -27 9 -16 14
-20 11 -10 -3 9 -4 17 -3 17 1 0 20 -7 42 -15 22 -8 57 -14 78 -15 21 0 48 -5
59 -11 14 -8 23 -8 31 0 21 21 34 11 47 -34 7 -25 15 -44 17 -41 3 2 0 21 -6
41 -9 32 -8 35 8 30 10 -3 32 6 51 20 19 14 40 25 47 25 8 0 42 12 76 26 56
24 69 26 145 20 58 -5 88 -4 98 5 8 6 23 9 33 6 12 -3 27 3 37 14 12 13 31 19
59 19 31 0 46 6 62 24 19 21 75 45 144 60 29 6 45 34 30 49 -13 13 -119 -8
-191 -38 -41 -16 -93 -25 -200 -34 -128 -10 -152 -15 -203 -41 -42 -22 -65
-28 -85 -23 -48 12 -192 82 -192 93 0 6 -4 9 -10 5 -5 -3 -36 8 -69 25 -33 16
-73 30 -89 30 -41 0 -68 35 -82 105 -6 33 -16 75 -22 93 -7 23 -7 37 1 46 14
17 4 46 -15 46 -21 0 -29 -29 -15 -51 6 -11 18 -50 27 -87 8 -37 17 -75 21
-86 4 -16 1 -18 -28 -13 -19 3 -50 11 -70 18 l-36 13 -12 99 c-9 71 -9 102 -1
111 21 27 -19 64 -43 39z"/>
</g>
</svg>
